<?xml version="1.0"?>
<svg xmlns="http://www.w3.org/2000/svg" xmlns:xlink="http://www.w3.org/1999/xlink" version="1.1" id="Capa_1" x="0px" y="0px" viewBox="0 0 512 512" style="enable-background:new 0 0 512 512;" xml:space="preserve" width="512px" height="512px" class=""><g><g>
	<g>
		<path d="M444.862,109.779L338.221,3.138C336.29,1.201,333.621,0,330.667,0h-224C83.146,0,64,19.135,64,42.667v426.667    C64,492.865,83.146,512,106.667,512h298.667C428.854,512,448,492.865,448,469.333v-352    C448,114.379,446.799,111.71,444.862,109.779z M160,149.333c-17.646,0-32-14.354-32-32c0-13.888,8.944-25.617,21.333-30.035    v-1.965c0-5.896,4.771-10.667,10.667-10.667s10.667,4.771,10.667,10.667h10.667C187.229,85.333,192,90.104,192,96    s-4.771,10.667-10.667,10.667H160c-5.875,0-10.667,4.781-10.667,10.667c0,5.885,4.792,10.667,10.667,10.667    c17.646,0,32,14.354,32,32c0,13.888-8.944,25.617-21.333,30.035V192c0,5.896-4.771,10.667-10.667,10.667    s-10.667-4.771-10.667-10.667h-10.667c-5.896,0-10.667-4.771-10.667-10.667c0-5.896,4.771-10.667,10.667-10.667H160    c5.875,0,10.667-4.781,10.667-10.667S165.875,149.333,160,149.333z M266.667,448h-128c-5.896,0-10.667-4.771-10.667-10.667    c0-5.896,4.771-10.667,10.667-10.667h128c5.896,0,10.667,4.771,10.667,10.667C277.333,443.229,272.563,448,266.667,448z     M373.333,384H138.667c-5.896,0-10.667-4.771-10.667-10.667c0-5.896,4.771-10.667,10.667-10.667h234.667    c5.896,0,10.667,4.771,10.667,10.667C384,379.229,379.229,384,373.333,384z M373.333,320H138.667    c-5.896,0-10.667-4.771-10.667-10.667c0-5.896,4.771-10.667,10.667-10.667h234.667c5.896,0,10.667,4.771,10.667,10.667    C384,315.229,379.229,320,373.333,320z M373.333,256H138.667c-5.896,0-10.667-4.771-10.667-10.667    c0-5.896,4.771-10.667,10.667-10.667h234.667c5.896,0,10.667,4.771,10.667,10.667C384,251.229,379.229,256,373.333,256z     M373.333,192h-128c-5.896,0-10.667-4.771-10.667-10.667c0-5.896,4.771-10.667,10.667-10.667h128    c5.896,0,10.667,4.771,10.667,10.667C384,187.229,379.229,192,373.333,192z M362.667,106.667    c-11.771,0-21.333-9.573-21.333-21.333V36.417l70.25,70.25H362.667z" data-original="#000000" class="active-path" data-old_color="#000000" fill="#82B440"/>
	</g>
</g></g> </svg>
