<?xml version="1.0"?>
<svg xmlns="http://www.w3.org/2000/svg" height="512px" viewBox="0 0 56 60" width="512px" class=""><g><g id="050---Sales"><path id="Shape" d="m32 60c2.209139 0 4-1.790861 4-4v-52c0-2.209139-1.790861-4-4-4h-28c-2.209139 0-4 1.790861-4 4v52c0 2.209139 1.790861 4 4 4zm-6.31-58-1.28 1.37c-.3666957.39030942-.874608.61724897-1.41.63h-9.9c-.5528207.00080487-1.081318-.2272453-1.46-.63l-1.33-1.37zm-23.69 2c0-1.1045695.8954305-2 2-2h3.57l2.56 2.74c.7573641.8055094 1.8143585 1.26160975 2.92 1.26h9.95c1.1056415.00160975 2.1626359-.4544906 2.92-1.26l2.51-2.74h3.57c1.1045695 0 2 .8954305 2 2v47c0 1.1045695-.8954305 2-2 2h-28c-1.1045695 0-2-.8954305-2-2zm0 52v-1.56c.60399287.3635516 1.29504012.5570448 2 .56h28c.7049599-.0029552 1.3960071-.1964484 2-.56v1.56c0 1.1045695-.8954305 2-2 2h-28c-1.1045695 0-2-.8954305-2-2z" data-original="#000000" class="active-path" data-old_color="#000000" fill="#82B440"/><path id="Shape" d="m40 25v32c0 4 14 4 14 0v-32c0-4-14-4-14 0zm12 27.91c-.29.35-2 1.09-5 1.09s-4.71-.74-5-1.09v-1.71c3.2477191 1.0684211 6.7522809 1.0684211 10 0zm0-4c-.29.35-2 1.09-5 1.09s-4.71-.74-5-1.09v-1.71c3.2477191 1.0684211 6.7522809 1.0684211 10 0zm0-4c-.29.35-2 1.09-5 1.09s-4.71-.74-5-1.09v-1.71c3.2477191 1.0684211 6.7522809 1.0684211 10 0zm0-4c-.29.35-2 1.09-5 1.09s-4.71-.74-5-1.09v-1.71c3.2477191 1.0684211 6.7522809 1.0684211 10 0zm0-4c-.29.35-2 1.09-5 1.09s-4.71-.74-5-1.09v-1.71c3.2477191 1.0684211 6.7522809 1.0684211 10 0zm0-4c-.29.35-2 1.09-5 1.09s-4.71-.74-5-1.09v-1.71c3.2477191 1.0684211 6.7522809 1.0684211 10 0zm0-4c-.29.35-2 1.09-5 1.09s-4.71-.74-5-1.09v-1.71c3.2477191 1.0684211 6.7522809 1.0684211 10 0zm-5 29.09c-3 0-4.71-.74-5-1.08v-1.72c3.2477191 1.0684211 6.7522809 1.0684211 10 0v1.72c-.29.34-2 1.08-5 1.08zm0-32c-2.76 0-4.44-.63-4.91-1 .47-.37 2.15-1 4.91-1s4.44.63 4.91 1c-.47.37-2.15 1-4.91 1z" data-original="#000000" class="active-path" data-old_color="#000000" fill="#82B440"/><path id="Shape" d="m47 0c-4.9705627 0-9 4.02943725-9 9 0 4.9705627 4.0294373 9 9 9s9-4.0294373 9-9c0-4.97056275-4.0294373-9-9-9zm0 16c-3.8659932 0-7-3.1340068-7-7 0-3.86599325 3.1340068-7 7-7s7 3.13400675 7 7c0 1.8565154-.7374979 3.6369928-2.0502525 4.9497475-1.3127547 1.3127546-3.0932321 2.0502525-4.9497475 2.0502525z" data-original="#000000" class="active-path" data-old_color="#000000" fill="#82B440"/><path id="Shape" d="m47 6c.5522847 0 1 .44771525 1 1s.4477153 1 1 1c1.91 0 1-4-2-4-1.6568542.00000002-3 1.34314577-3 3s1.3431458 2.99999998 3 3c.5522847 0 1 .4477153 1 1s-.4477153 1-1 1-1-.4477153-1-1-.4477153-1-1-1c-1.91 0-1 4 2 4 1.6568542 0 2.9999999-1.3431458 2.9999999-3 0-1.65685422-1.3431457-2.99999997-2.9999999-3-.5522847 0-1-.44771525-1-1s.4477153-1 1-1z" data-original="#000000" class="active-path" data-old_color="#000000" fill="#82B440"/><path id="Shape" d="m5 49h26c.5522847 0 1-.4477153 1-1s-.4477153-1-1-1h-1v-22c0-1.1045695-.8954305-2-2-2h-3c-1.1045695 0-2 .8954305-2 2v22h-2v-16c0-1.1045695-.8954305-2-2-2h-3c-1.1045695 0-2 .8954305-2 2v16h-2v-9c0-1.1045695-.8954305-2-2-2h-3c-1.1045695 0-2 .8954305-2 2v9c-.55228475 0-1 .4477153-1 1s.44771525 1 1 1zm20-24h3v22h-3zm-9 6h3v16h-3zm-9 7h3v9h-3z" data-original="#000000" class="active-path" data-old_color="#000000" fill="#82B440"/><path id="Shape" d="m6 33c.54 0-1.13 1.3 21-17.82v1.82c0 .5522847.4477153 1 1 1s1-.4477153 1-1c0-4.24 0-4.11-.06-4.35-.48-.86-.44-.65-5.94-.65-.5522847 0-1 .4477153-1 1s.4477153 1 1 1h2.31l-20 17.24c-.32446733.2767433-.43772898.7288057-.28207304 1.1258411.15565593.3970355.54597538.6516712.97207304.6341589z" data-original="#000000" class="active-path" data-old_color="#000000" fill="#82B440"/></g></g> </svg>
